# xmcd
#
# Track frame offsets:
#	150
#	12477
#	39621
#	68032
#	99930
#	116929
#	149586
#	172428
#	189762
#	213283
#	251130
#	277243
#
# Disc length: 3968 seconds
# Revision: 0
# Processed by: cddbd v1.5.2PL0 Copyright (c) Steve Scherf et al.
# Submitted via: dBpowerAMP V12.0
#
DISCID=bd0f7e0c
DTITLE=Brandon Santini - Live and Extended!
DYEAR=2015
DGENRE=Blues Harmonica
TTITLE0=One More Mile
TTITLE1=This Time Another Year
TTITLE2=Elevate Me Mama
TTITLE3=Evil Woman
TTITLE4=Have A Good Time
TTITLE5=Help Me With The Blues
TTITLE6=Got Love If You Want It
TTITLE7=No Matter What I Do
TTITLE8=What You Doing To Me
TTITLE9=My Backscratcher
TTITLE10=I Wanna Boogie With You
TTITLE11=Come On Everybody
EXTD=
EXTT0=
EXTT1=
EXTT2=
EXTT3=
EXTT4=
EXTT5=
EXTT6=
EXTT7=
EXTT8=
EXTT9=
EXTT10=
EXTT11=
PLAYORDER=
